HIERARCHY
ROOT hip
{
	OFFSET 0.000000 0.000000 0.000000 
	CHANNELS 6 Xposition Yposition Zposition Xrotation Yrotation Zrotation
	JOINT abdomen
	{
		OFFSET 0.000000 3.402643 0.000000 
		CHANNELS 3 Xrotation Yrotation Zrotation
		JOINT chest
		{
			OFFSET 0.000000 8.438565 -0.680529 
			CHANNELS 3 Xrotation Yrotation Zrotation
			JOINT neck
			{
				OFFSET 0.000000 9.885400 -0.272212 
				CHANNELS 3 Xrotation Yrotation Zrotation
				JOINT head
				{
					OFFSET 0.000000 3.130431 0.000000 
					CHANNELS 3 Xrotation Yrotation Zrotation
					End Site
					{
						OFFSET 0.000000 3.039250 0.000000 
					}
				}
			}
			JOINT rCollar
			{
				OFFSET -3.238290 6.669187 -0.816635 
				CHANNELS 3 Xrotation Yrotation Zrotation
				JOINT rShldr
				{
					OFFSET -2.515050 0.000000 0.000000 
					CHANNELS 3 Xrotation Yrotation Zrotation
					JOINT rForeArm
					{
						OFFSET -11.517700 0.000000 0.000000 
						CHANNELS 3 Xrotation Yrotation Zrotation
						JOINT rHand
						{
							OFFSET -9.026700 0.000000 0.000000 
							CHANNELS 3 Xrotation Yrotation Zrotation
							End Site
							{
								OFFSET -4.028470 0.000000 0.000000 
							}
						}
					}
				}
			}
			JOINT lCollar
			{
				OFFSET 3.238290 6.669187 -0.816635 
				CHANNELS 3 Xrotation Yrotation Zrotation
				JOINT lShldr
				{
					OFFSET 2.515050 0.000000 0.000000 
					CHANNELS 3 Xrotation Yrotation Zrotation
					JOINT lForeArm
					{
						OFFSET 11.517700 0.000000 0.000000 
						CHANNELS 3 Xrotation Yrotation Zrotation
						JOINT lHand
						{
							OFFSET 9.026700 0.000000 0.000000 
							CHANNELS 3 Xrotation Yrotation Zrotation
							End Site
							{
								OFFSET 4.028470 0.000000 0.000000 
							}
						}
					}
				}
			}
		}
	}
	JOINT rThigh
	{
		OFFSET -4.983750 -1.633274 1.361059 
		CHANNELS 3 Xrotation Yrotation Zrotation
		JOINT rShin
		{
			OFFSET 2.041588 -20.007561 0.000000 
			CHANNELS 3 Xrotation Yrotation Zrotation
			JOINT rFoot
			{
				OFFSET 0.000000 -19.190928 -1.224953 
				CHANNELS 3 Xrotation Yrotation Zrotation
				End Site
				{
					OFFSET 0.000000 -2.449906 4.627600 
				}
			}
		}
	}
	JOINT lThigh
	{
		OFFSET 4.983750 -1.633274 1.361059 
		CHANNELS 3 Xrotation Yrotation Zrotation
		JOINT lShin
		{
			OFFSET -2.041588 -20.007561 0.000000 
			CHANNELS 3 Xrotation Yrotation Zrotation
			JOINT lFoot
			{
				OFFSET 0.000000 -19.190928 -1.224953 
				CHANNELS 3 Xrotation Yrotation Zrotation
				End Site
				{
					OFFSET 0.000000 -2.449906 4.627600 
				}
			}
		}
	}
}
MOTION
Frames: 8
Frame Time: 0.033333
-39.833801 43.723347 -4.082496 17.008629 -25.874426 6.964088 0.525058 0.211741 -0.202090 1.753183 0.698611 -0.681160 0.000000 0.000000 0.000000 0.000000 0.000000 0.000000 -0.000002 -0.000003 0.000002 -152.270203 33.992550 98.538437 0.955143 28.945660 -0.266808 0.000001 0.000000 0.000004 -0.000002 -0.000002 0.000002 -177.542404 -52.921139 -108.185699 0.110826 -3.691275 0.006066 0.000000 0.000000 0.000000 -40.164490 9.704641 6.908249 49.369259 0.370917 -0.224015 -2.910638 -3.379589 -1.278270 -41.175869 -0.250878 0.692120 42.053799 -0.329868 0.171839 -2.012110 -2.704928 -0.856955 
-39.568901 43.617397 -4.357744 16.976732 -26.872547 7.228697 0.448524 0.168107 -0.222667 1.497701 0.553602 -0.747355 -0.000001 0.000000 0.000000 -0.000001 0.000000 0.000000 -0.000001 -0.000003 0.000002 -152.009003 34.663059 97.850388 0.954877 28.938900 -0.266664 -0.000001 0.000000 0.000001 -0.000001 -0.000001 0.000002 -176.617599 -50.864090 -108.446602 0.068264 -2.276303 0.002880 0.000000 0.000000 -0.000001 -41.161659 10.140150 7.053205 50.212372 0.375151 -0.230360 -2.537332 -3.663226 -1.343727 -41.703079 -1.884324 0.747989 45.679871 -0.350795 0.197100 -2.798102 -3.821576 -1.255900 
-39.233002 43.493568 -4.637527 17.247572 -28.285732 7.734597 0.367682 0.113182 -0.281138 1.227859 0.370296 -0.939993 -0.000001 0.000000 0.000000 -0.000001 0.000000 0.000000 -0.000001 -0.000003 0.000002 -151.650101 35.961250 97.327049 0.938497 28.523211 -0.258512 0.000000 0.000001 0.000004 -0.000001 -0.000001 0.000001 -174.646805 -49.132530 -107.828697 0.055658 -1.856514 0.002132 0.000001 0.000000 -0.000003 -42.514980 10.456780 7.079929 51.135090 0.379671 -0.237373 -2.156905 -3.340892 -1.176140 -42.219810 -4.749774 0.648950 48.902630 -0.368025 0.220618 -3.486940 -3.498239 -1.177424 
-38.848549 43.338684 -4.892929 17.779633 -30.158424 8.424720 0.287027 0.043442 -0.377770 0.957958 0.137457 -1.260127 0.000001 0.000001 -0.000001 -0.000001 0.000001 0.000000 0.000000 0.000002 0.000001 -151.698395 37.603642 97.201340 0.897696 27.473089 -0.238642 0.000000 0.000001 0.000000 0.000000 0.000002 0.000001 -173.109299 -47.725330 -107.132896 0.046783 -1.560736 0.001665 0.000000 0.000000 -0.000001 -44.055290 10.864240 7.214776 52.040871 0.383997 -0.244330 -2.149303 -2.818186 -0.966969 -42.599419 -7.903585 0.737355 51.207630 -0.379517 0.238016 -3.305325 -3.276919 -1.158176 
-38.419830 43.195305 -5.109194 18.520863 -32.539841 9.312394 0.211605 -0.042271 -0.504735 0.703911 -0.148139 -1.681893 0.000001 -0.000001 0.000000 0.000001 -0.000001 0.000000 0.000001 -0.000004 0.000002 -152.450195 39.123619 97.592010 0.819518 25.403009 -0.202407 0.000005 -0.000009 0.000002 -0.000001 -0.000001 0.000001 -172.082901 -46.425598 -106.650497 0.033018 -1.101771 0.001036 -0.000001 0.000000 0.000001 -45.506222 11.615620 7.619063 52.512272 0.386205 -0.247980 -2.445209 -2.498817 -0.846211 -42.490761 -10.889990 1.159922 51.833611 -0.382516 0.242821 -2.177408 -4.561942 -1.622432 
-37.849358 43.073189 -5.271946 19.552153 -35.419949 10.699358 0.145295 -0.139528 -0.647927 0.478129 -0.471457 -2.158447 -0.000001 0.000005 -0.000001 -0.000002 0.000003 0.000000 -0.000002 -0.000001 0.000002 -153.668198 40.508541 98.353531 0.720406 22.670589 -0.160147 -0.000001 0.000001 -0.000001 -0.000001 0.000005 0.000000 -170.582199 -45.139759 -105.920097 0.032946 -1.099431 0.001034 0.000000 0.000000 0.000000 -47.021111 12.674010 7.858603 52.666771 0.386913 -0.249180 -2.567307 -1.739594 -0.574059 -41.854420 -14.326660 1.306350 50.907349 -0.378051 0.235730 -2.172311 -7.318339 -2.700442 
-37.053638 42.946236 -5.362799 21.257082 -39.037556 13.035839 0.089642 -0.237844 -0.792302 0.285908 -0.797494 -2.639702 0.000001 0.000002 -0.000001 0.000001 -0.000001 0.000000 -0.000001 0.000003 0.000001 -154.801804 41.793201 99.257507 0.655042 20.804440 -0.134654 0.000002 -0.000004 0.000001 -0.000001 0.000003 0.000001 -169.230499 -43.999641 -105.157997 0.025183 -0.840497 0.000723 0.000000 0.000000 0.000001 -49.142811 14.533830 8.004599 52.847240 0.387740 -0.250589 -2.122092 -0.323715 -0.085185 -41.445850 -16.620319 1.166223 49.688610 -0.372017 0.226506 -4.497209 -10.123270 -3.955036 
-36.113811 42.877113 -5.370241 23.996082 -43.641865 16.512566 0.043126 -0.323940 -0.927435 0.123282 -1.082247 -3.090784 0.000000 0.000000 0.000000 0.000000 0.000000 0.000000 -0.000001 -0.000003 0.000002 -155.394196 42.647739 100.486198 0.641558 20.413389 -0.129643 -0.000002 -0.000001 -0.000002 -0.000002 -0.000003 0.000001 -168.317093 -43.073990 -104.465202 0.006519 -0.217670 0.000125 0.000000 0.000000 0.000000 -51.676998 18.127890 8.919646 52.431950 0.385797 -0.247364 -1.063488 0.824864 0.291535 -41.432079 -15.426730 1.537526 48.587318 -0.366380 0.218292 -7.221165 -11.685640 -4.940011 
